<svg version="1.0" xmlns="http://www.w3.org/2000/svg" fill="current" width="45" height="45" viewBox="0 0 512 512"><path d="M119.5 46.1c-3.9 6.7-8.8 15.3-11.1 19.3-2.3 3.9-13.2 22.8-24.4 42.1-11.1 19.2-21.1 36.5-22.1 38.2-1.1 1.8-2.7 4.8-3.8 6.5C41 181.7 10 236 10 236.4c0 .2-2.2 4.2-5 9-2.7 4.8-5 9.7-5 10.9 0 1.2 5.3 11.4 11.8 22.7 6.5 11.3 19.9 34.4 29.7 51.5 9.8 17 20.6 35.7 24 41.5 3.4 5.8 7.4 12.5 8.7 15 1.4 2.5 5.6 9.7 9.3 16 3.7 6.3 7.9 13.5 9.3 16 2.6 4.7 9.6 16.8 25.2 43.2l9.3 15.8h257.5l8.5-14.2c4.7-7.9 9.3-15.9 10.4-17.8 1.1-1.9 4.3-7.3 7-12 2.8-4.7 6.2-10.5 7.5-13 1.4-2.5 5.8-10.1 9.8-17 4-6.9 8.6-15 10.3-18 1.7-3 4.9-8.7 7.2-12.5 2.3-3.9 5.3-9 6.7-11.5 1.4-2.5 3.4-6.1 4.5-8 5.9-10 25.9-45.2 28.6-50 1.6-3 5.2-9.3 7.9-14 2.7-4.7 5.4-9.3 6-10.4 1.3-2.4 3.8-6.9 8.8-15.7 2.2-3.9 4-8 4-9.1 0-1.1-5.2-11.1-11.6-22.2-6.4-11-13.3-23-15.4-26.6-2-3.6-9.4-16.4-16.5-28.5-7-12.1-13.9-24-15.3-26.5-1.4-2.5-5.3-9.2-8.7-15-5.8-9.8-32.1-55.3-40.5-70-2-3.6-7-12.2-11.1-19.3L385.6 34H126.4l-6.9 12.1zm253 37.1c4.4 7.7 9.1 15.9 10.4 18.2 1.3 2.3 3.5 6.1 4.9 8.6 1.4 2.5 4.4 7.8 6.8 11.7 2.4 4 4.4 7.5 4.4 7.8 0 .3 1.1 2.2 2.4 4.3 2.1 3.4 23.6 40.2 33.5 57.4 1 1.8 3.4 6 5.3 9.3 2 3.3 4.7 8 6.1 10.5 1.3 2.5 6 10.6 10.2 18 4.3 7.4 9.3 16.7 11.2 20.7l3.4 7.1-11.7 20.4c-6.4 11.1-12.8 22.3-14.2 24.8-1.4 2.5-5.3 9.2-8.7 15-3.4 5.8-11.7 20.2-18.5 32-6.8 11.8-13.3 23.1-14.5 25-1.2 1.9-3.3 5.5-4.7 8-1.4 2.5-3.4 6.1-4.5 8-4.6 8.1-8.4 14.6-9.2 16-3.6 5.9-18.6 31.9-19.5 33.7l-1.1 2.3H148.2l-7.2-12.3c-4-6.7-8.3-13.9-9.6-15.9-1.3-2.1-2.4-4-2.4-4.2 0-.3-3-5.6-6.6-11.8-3.7-6.2-8-13.8-9.7-16.8-1.6-3-3.3-6-3.7-6.5-.5-.6-5.6-9.3-11.5-19.5s-11.7-20.1-12.8-22c-1.1-1.9-3.3-6-5-9-1.7-3-3.8-6.6-4.7-8-.9-1.4-4-6.6-6.7-11.5-2.8-5-9.9-17.5-15.7-27.9-5.8-10.5-10.8-19.8-11.1-20.7-.4-1 .4-3.6 1.7-5.8 6.6-11.6 31.6-54.9 33.7-58.5 1.3-2.2 3.2-5.5 4.1-7.1 16.4-28.1 28-48.3 31-53.5 2-3.6 9.3-16.2 16.2-28 6.8-11.8 14-24.3 15.9-27.7l3.4-6.3h217l8 14.2z"/><path d="m171.7 102.7-2.7 2.9v300.8l2.7 2.8 2.7 2.8h28.2l2.7-2.8 2.7-2.8V293h35.5l28.1 59.3 28.1 59.2 18.5.3 18.6.2 2.1-3.5c1.1-2 2.1-4.2 2.1-4.9 0-.8-7.9-17.5-17.6-37.2-9.7-19.8-22.3-45.4-27.9-57.1l-10.3-21.1 5.7-2.1c33.1-12 52.5-53.2 48.2-102-1.3-14.5-3.3-23.6-8.1-35.8-8.6-22.5-26.7-39.6-48.5-45.9-5.3-1.5-12.3-1.8-57-2.1l-51-.4-2.8 2.8zm102.6 45c6.9 3.2 14.9 11.3 18.5 18.6 4.5 9.1 6.4 18.4 6.4 30.7-.1 22.9-8.9 40.8-23.7 48-4.9 2.5-5.4 2.5-36.2 2.8l-31.3.3V144.9l30.8.3c29.2.3 30.9.4 35.5 2.5z"/></svg>